<?xml version="1.0" encoding="UTF-8"?>
<svg xmlns="http://www.w3.org/2000/svg" version="1.1" xmlns:xlink="http://www.w3.org/1999/xlink" viewBox="0 0 6000 3000">
  <defs>
    <clipPath id="clippath">
      <rect width="6000" height="3000" style="fill: none;"/>
    </clipPath>
    <linearGradient id="linear-gradient" x1="2267.123" y1="2090.859" x2="5386.313" y2="-423.891" gradientUnits="userSpaceOnUse">
      <stop offset="0" stop-color="#007b70"/>
      <stop offset="1" stop-color="#ecf955"/>
    </linearGradient>
    <linearGradient id="linear-gradient-2" x1="1363.266" y1="-988.875" x2="968.192" y2="3220.917" gradientTransform="translate(140.737 -172.906)" gradientUnits="userSpaceOnUse">
      <stop offset="0" stop-color="#fff"/>
      <stop offset="1" stop-color="#000"/>
    </linearGradient>
    <mask id="mask" x="0" y="0" width="2508.415" height="3000.001" maskUnits="userSpaceOnUse">
      <rect y="0" width="2508.409" height="3000.001" style="fill: url(#linear-gradient-2);"/>
    </mask>
    <linearGradient id="linear-gradient-3" x1="5511.928" y1="-3138.453" x2="1820.823" y2="2305.054" gradientTransform="translate(156.045 -172.906)" xlink:href="#linear-gradient-2"/>
    <mask id="mask-1" x="905.357" y="0" width="3000.31" height="3000.001" maskUnits="userSpaceOnUse">
      <rect x="905.357" y="0" width="3000.31" height="3000.001" style="fill: url(#linear-gradient-3);"/>
    </mask>
  </defs>
  <!-- Generator: Adobe Illustrator 28.7.7, SVG Export Plug-In . SVG Version: 1.2.0 Build 194)  -->
  <g>
    <g id="Layer_1">
      <g>
        <g style="clip-path: url(#clippath);">
          <rect width="6000" height="3000" style="fill: url(#linear-gradient);"/>
        </g>
        <g style="mask: url(#mask);">
          <path d="M2508.415,826.729c0-291.657-54.908-570.492-154.96-826.729H0v3000h905.357c928.387-286.21,1603.058-1150.962,1603.058-2173.271" style="fill: #106b60; fill-rule: evenodd;"/>
        </g>
        <g style="mask: url(#mask-1);">
          <path d="M2353.455,0c100.052,256.237,154.96,535.072,154.96,826.729,0,1022.309-674.671,1887.061-1603.058,2173.271h2398.9c373.368-405.111,601.405-946.215,601.405-1540.56,0-555.523-199.217-1064.525-530.102-1459.44h-1022.105Z" style="fill: #005b50; fill-rule: evenodd;"/>
        </g>
      </g>
    </g>
  </g>
</svg>