<?xml version="1.0" encoding="UTF-8"?>
<svg id="Layer_2" data-name="Layer 2" xmlns="http://www.w3.org/2000/svg" xmlns:xlink="http://www.w3.org/1999/xlink" viewBox="0 0 1825.1 456.57">
  <defs>
    <style>
      .cls-1 {
        fill: #fff;
      }

      .cls-2 {
        fill: #05756a;
      }

      .cls-3 {
        fill: url(#linear-gradient);
      }
    </style>
    <linearGradient id="linear-gradient" x1="0" y1="473.19" x2="213.94" y2="473.19" gradientTransform="translate(0 618.55) scale(1 -1)" gradientUnits="userSpaceOnUse">
      <stop offset="0" stop-color="#fff"/>
      <stop offset=".9" stop-color="#05756a"/>
    </linearGradient>
  </defs>
  <g id="Layer_1-2" data-name="Layer 1">
    <path class="cls-3" d="M1.39,1.53C.83,4.24-.27,37.45.06,47.14c1.43,49.5,16.33,91.63,43.04,121.22,19.97,22.23,51.98,40.19,89.94,50.4,18.32,5.04,23.17,7.11,30.9,13.05,8.5,6.72,15.23,15.77,19.86,26.88,3.09,7.24,6.4,20.29,7.06,27.27.55,5.43.55,5.56,1.54,3.62,3.31-6.2,4.19-10.08,4.41-21.97.88-28.17-6.4-58.67-20.86-86.97-15.89-31.14-41.16-63.71-72.06-93.05-9.82-9.3-30.9-27.91-38.07-33.47-1.99-1.55-3.42-2.71-3.09-2.71,1.66,0,28.8,15.51,39.95,22.74,39.62,25.98,70.74,61,94.91,106.75,2.65,5.04,4.97,9.18,5.08,9.43.44.52,4.63-8.53,6.4-14.09,3.42-10.21,4.3-15.51,4.75-29.08.55-15.9-.66-24.94-4.97-37.48-10.04-29.72-31.78-53.11-67.32-72.63C109.97,19.75,63.63,6.57,15.29,1.01,2.27-.41,1.72-.41,1.27,1.53h.11Z"/>
    <path class="cls-2" d="M284.77,132.98c-.98.65-4.03,4.67-6.75,8.91-2.72,4.24-9.37,14.12-14.7,21.83-5.34,7.71-9.91,14.56-10.24,15.21-1.09,2.72,1.52,5.65,8.06,9.12,25.49,13.47,45.63,36.39,54.13,61.81,18.41,54.85-13.07,112.32-71.23,130.35-50.1,15.42-105.97-5.65-132.22-49.86-7.62-12.82-11.44-25.09-12.96-41.17-.54-6.19-1.52-11.84-2.61-14.23-3.81-9.34-14.7-16.84-25.7-17.71-6.43-.43-42.37,1.96-44.54,3.04-3.49,1.74-3.81,3.58-4.36,24.44-.44,18.9-.44,20.31,1.09,22.7,1.96,3.04,3.92,3.48,24.4,6.63,8.5,1.3,15.47,2.5,15.68,2.72.22.22,1.63,4.02,3.27,8.58,1.63,4.56,5.01,12.06,7.62,16.73l4.57,8.58-11.22,12.71c-6.1,6.95-11.44,13.58-11.87,14.56-.44,1.09-.44,2.61,0,3.91.98,2.5,27.55,30.85,29.51,31.5.76.22,2.29.43,3.38.43,1.63,0,22.11-10.1,31.26-15.32l3.38-2.06,7.08,4.45c3.92,2.5,10.89,6.19,15.68,8.36l8.6,3.91.54,8.36c.22,4.56.54,12.17.54,16.84,0,8.8.76,10.97,4.25,12.71,1.85.98,34.42,5.54,39.21,5.54s6.43-1.3,12.52-18.25l5.55-15.64,6.21-.43c3.38-.33,10.56-1.3,15.9-2.17,5.77-.98,9.91-1.3,10.24-.87,10.02,13.36,21.67,27.92,22.76,28.24,2.61.98,4.14.43,22.11-7.93,17.53-8.04,22-10.86,22-13.58s-2.61-8.36-5.66-17.05l-5.66-15.75,8.93-8.36c4.9-4.67,10.56-10.54,12.52-13.03,2.07-2.5,4.14-4.56,4.68-4.56s8.71,1.96,18.3,4.34c18.51,4.56,20.37,4.67,22.54.98,3.81-6.52,17.75-36.17,17.75-37.91s-1.63-3.91-19.06-15.32c-6.43-4.24-11.87-8.04-12.09-8.26-.22-.33.22-3.91.87-8.04.65-4.13,1.42-12.17,1.74-17.81l.54-10.32,15.79-7.93c8.6-4.34,16.55-8.8,17.32-9.78,2.07-2.39,2.07-4.45,0-10.97-.98-2.93-3.49-11.19-5.66-18.36-2.18-7.17-4.57-13.69-5.34-14.45-.98-.98-2.61-1.3-5.77-1.3s-25.59,1.85-33.11,2.82c-2.94.43-3.38.11-4.57-2.17-2.4-4.45-11.44-16.51-16.66-22.59l-5.01-5.76,5.88-11.51c6.97-13.58,7.41-15.75,3.27-19.77-3.59-3.48-36.27-21.07-39.21-21.07s-2.94.54-3.92,1.09h0l.44-.11Z"/>
    <g>
      <path class="cls-1" d="M532.18,205.72h24.2v68.64l-3.08,43.34h1.54l55.66-111.98h23.32v153.56h-24.2v-68.64l3.08-43.34h-1.54l-55.66,111.98h-23.32v-153.56Z"/>
      <path class="cls-1" d="M665.28,205.72h99.44v153.56h-24.64v-132.88h-50.16v132.88h-24.64v-153.56Z"/>
      <path class="cls-1" d="M954.13,196.48h18.48l-11.88,65.56h-34.1l27.5-65.56ZM1008.25,196.48h18.48l-11.88,65.56h-34.1l27.5-65.56Z"/>
      <path class="cls-1" d="M1063.91,359.28v-153.56h96.14v20.68h-71.5v44.66h68.86v20.68h-68.86v46.86h71.5v20.68h-96.14Z"/>
      <path class="cls-1" d="M1194.37,245.76h23.98v19.36h1.32c3.37-6.89,7.84-12.28,13.42-16.17,5.57-3.88,12.54-5.83,20.9-5.83,13.34,0,23.98,4.99,31.9,14.96,7.92,9.98,11.88,24.79,11.88,44.44s-3.96,34.47-11.88,44.44c-7.92,9.98-18.56,14.96-31.9,14.96-8.36,0-15.33-1.95-20.9-5.83-5.58-3.88-10.05-9.27-13.42-16.17h-1.32v63.36h-23.98v-157.52ZM1244.09,342.34c9.09,0,16.09-2.78,21.01-8.36,4.91-5.57,7.37-12.98,7.37-22.22v-18.48c0-9.24-2.46-16.64-7.37-22.22-4.92-5.57-11.92-8.36-21.01-8.36-3.52,0-6.82.44-9.9,1.32s-5.8,2.2-8.14,3.96c-2.35,1.76-4.22,3.93-5.61,6.49-1.4,2.57-2.09,5.61-2.09,9.13v37.84c0,3.52.69,6.57,2.09,9.13,1.39,2.57,3.26,4.73,5.61,6.49,2.34,1.76,5.06,3.08,8.14,3.96s6.38,1.32,9.9,1.32Z"/>
      <path class="cls-1" d="M1341.77,304.28v-23.98h66.44v23.98h-66.44Z"/>
      <path class="cls-1" d="M1542.63,359.28l-11.66-41.14h-48.84l-11.66,41.14h-25.08l44.88-153.56h33.66l44.88,153.56h-26.18ZM1507.43,230.58h-1.76l-18.92,67.32h39.6l-18.92-67.32Z"/>
      <path class="cls-1" d="M1643.16,361.92c-8.51,0-16.1-1.4-22.77-4.18-6.68-2.78-12.32-6.74-16.94-11.88-4.62-5.13-8.14-11.36-10.56-18.7-2.42-7.33-3.63-15.54-3.63-24.64s1.21-17.3,3.63-24.64c2.42-7.33,5.94-13.56,10.56-18.7,4.62-5.13,10.26-9.09,16.94-11.88,6.67-2.78,14.19-4.18,22.55-4.18,11.73,0,21.15,2.47,28.27,7.4,7.11,4.93,12.43,11.34,15.95,19.22l-18.7,10.12c-2.06-5.28-5.17-9.46-9.35-12.54s-9.57-4.62-16.17-4.62c-9.1,0-16.14,2.77-21.12,8.3-4.99,5.53-7.48,12.87-7.48,22.01v19.02c0,9,2.49,16.3,7.48,21.9,4.98,5.6,12.17,8.4,21.56,8.4,7.04,0,12.79-1.61,17.27-4.84,4.47-3.22,8.03-7.62,10.67-13.2l17.6,10.78c-3.67,7.89-9.24,14.33-16.72,19.34-7.48,5-17.16,7.5-29.04,7.5Z"/>
      <path class="cls-1" d="M1736.88,196.48h34.1l-27.5,65.56h-18.48l11.88-65.56ZM1791,196.48h34.1l-27.5,65.56h-18.48l11.88-65.56Z"/>
    </g>
  </g>
</svg>